<?xml version="1.0" encoding="UTF-8"?>
<svg id="Layer_1" data-name="Layer 1" xmlns="http://www.w3.org/2000/svg" viewBox="0 0 448.5 384.5">
  <defs>
    <style>
      .cls-1 {
        fill: #12664f;
      }
    </style>
  </defs>
  <path class="cls-1" d="m416.25.25c17.7,0,32,14.3,32,32s-14.3,32-32,32H32.25C14.55,64.25.25,49.95.25,32.25S14.55.25,32.25.25h384Z"/>
  <path class="cls-1" d="m416.25,160.25c17.7,0,32,14.3,32,32s-14.3,32-32,32H32.25C14.55,224.25.25,209.95.25,192.25s14.3-32,32-32h384Z"/>
  <path class="cls-1" d="m416.25,320.25c17.7,0,32,14.3,32,32s-14.3,32-32,32H32.25c-17.7,0-32-14.3-32-32s14.3-32,32-32h384Z"/>
</svg>