<?xml version="1.0" encoding="utf-8"?>
<!-- Generator: Adobe Illustrator 27.1.1, SVG Export Plug-In . SVG Version: 6.00 Build 0)  -->
<svg version="1.1" id="Layer_1" xmlns="http://www.w3.org/2000/svg" xmlns:xlink="http://www.w3.org/1999/xlink" x="0px" y="0px"
	 viewBox="0 0 448.5 316.5" style="enable-background:new 0 0 448.5 316.5;" xml:space="preserve">
<style type="text/css">
	.st0{fill:#12664F;}
</style>
<g id="XMLID_00000001626056388252663060000012787518078092193443_">
	<g>
		<path class="st0" d="M416.2,0.2c17.7,0,32,14.3,32,32s-14.3,32-32,32h-384c-17.7,0-32-14.3-32-32s14.3-32,32-32H416.2z"/>
		<path class="st0" d="M416.2,124.2c17.7,0,32,14.3,32,32s-14.3,32-32,32h-384c-17.7,0-32-14.3-32-32s14.3-32,32-32H416.2z"/>
		<path class="st0" d="M416.2,252.2c17.7,0,32,14.3,32,32s-14.3,32-32,32h-384c-17.7,0-32-14.3-32-32s14.3-32,32-32H416.2z"/>
	</g>
	<g>
	</g>
</g>
</svg>
